<?xml version="1.0" encoding="UTF-8"?>
<!DOCTYPE svg PUBLIC "-//W3C//DTD SVG 1.1//EN" "http://www.w3.org/Graphics/SVG/1.1/DTD/svg11.dtd">
<!-- Creator: CorelDRAW 2018 (64-Bit Evaluation Version) -->
<svg xmlns="http://www.w3.org/2000/svg" xml:space="preserve" width="53.6358mm" height="6.5611mm" version="1.1" style="shape-rendering:geometricPrecision; text-rendering:geometricPrecision; image-rendering:optimizeQuality; fill-rule:evenodd; clip-rule:evenodd"
viewBox="0 0 1356.73 165.96"
 xmlns:xlink="http://www.w3.org/1999/xlink">
 <defs>
  <style type="text/css">
   <![CDATA[
    .fil0 {fill:white;fill-rule:nonzero}
   ]]>
  </style>
 </defs>
 <g id="Layer_x0020_1">
  <metadata id="CorelCorpID_0Corel-Layer"/>
  <path class="fil0" d="M69.82 0.01c-21.21,0 -38.16,7.54 -50.93,22.61 -12.59,15.07 -18.9,35.17 -18.9,60.3 0,25.69 6.28,45.93 18.87,60.71 12.45,14.82 29.37,22.2 50.82,22.2 12.55,0 23.33,-2.68 32.34,-8.04 8.68,-4.99 15.32,-12.39 19.89,-22.16l0 20.65c0,2.18 0.63,3.9 1.87,5.18 1.27,1.15 2.8,1.73 4.61,1.73 1.67,0 3.15,-0.58 4.4,-1.73 1.39,-1.28 2.1,-3.01 2.1,-5.18l0 -66.73c0,-2.76 -0.78,-5.03 -2.34,-6.91 -1.67,-2.02 -3.94,-3.01 -6.84,-3.01l-49.9 0c-3.86,0 -5.81,2.02 -5.81,6.06 0,4.04 1.91,6.06 5.77,6.06l46.14 0c0,21.79 -5.4,37.99 -16.17,48.61 -9.08,8.89 -21.1,13.34 -36.03,13.34 -17.52,0 -31.21,-5.81 -40.99,-17.42 -10.36,-12.2 -15.54,-29.98 -15.54,-53.35 0,-22.82 5.18,-40.45 15.57,-52.92 10,-11.9 23.69,-17.86 41.14,-17.86 13.44,0 24.4,2.79 32.84,8.37 8.58,5.85 14,14.37 16.21,25.5 0.28,2.17 1.31,3.75 3.09,4.74 1.52,0.99 3.18,1.36 4.96,1.06 1.92,-0.29 3.45,-1.18 4.54,-2.6 1.1,-1.54 1.46,-3.5 1.03,-5.77 -2.77,-12.35 -8.66,-22.23 -17.66,-29.69 -11.21,-9.15 -26.24,-13.75 -45.08,-13.75l-0.04 0.01zm120.44 3.53c-6.35,0 -11.34,2.17 -14.94,6.47 -3.18,3.9 -4.78,8.68 -4.78,14.44l0 134.05c0,2.28 0.64,4.08 1.88,5.37 1.27,1.28 2.8,1.94 4.61,1.94 1.67,0 3.15,-0.66 4.4,-1.94 1.39,-1.28 2.1,-3.09 2.1,-5.37l0 -68.09 53.66 0c6.63,0 12.2,1.65 16.78,4.97 4.97,3.46 7.44,8.19 7.44,14.22 0,10.76 0.43,20.39 1.24,28.84 1.1,9.63 2.7,17.3 4.78,23.03 0.71,1.88 1.95,3.16 3.77,3.9 1.67,0.58 3.33,0.58 5,0 1.78,-0.74 3.11,-1.87 3.94,-3.46 0.82,-1.87 0.82,-3.93 0,-6.25 -1.78,-5.19 -3.15,-11.5 -4.11,-18.96 -0.96,-8.2 -1.42,-17.89 -1.42,-29.11 0,-7.01 -2.16,-12.72 -6.45,-17.01 -3.58,-3.75 -7.73,-5.81 -12.45,-6.25 7.48,-2.72 13.44,-7.38 17.88,-14 4.36,-6.76 6.56,-14.51 6.56,-23.27 0,-11.65 -3.58,-21.65 -10.78,-29.99 -8.05,-9.05 -18.76,-13.56 -32.16,-13.56l-46.92 0 -0.03 0.01zm158.73 6.62l-51.35 145.97c-0.96,2.31 -1.03,4.29 -0.17,6.02 0.81,1.73 2.06,2.87 3.73,3.45 1.67,0.59 3.26,0.45 4.78,-0.44 1.8,-0.99 3.13,-2.58 3.94,-4.74l17.66 -50.16 66.7 0 17.45 50.16c0.84,2.18 2.09,3.75 3.76,4.74 1.67,0.74 3.3,0.81 4.97,0.21 1.67,-0.58 2.83,-1.65 3.54,-3.23 0.82,-1.87 0.88,-3.87 0.21,-6.02l-51.52 -145.97c-1.14,-3.3 -2.77,-5.84 -5.01,-7.57 -2.09,-1.57 -4.29,-2.35 -6.63,-2.35 -2.66,0 -5,0.78 -7.09,2.35 -2.19,1.73 -3.86,4.26 -4.97,7.57l0 0zm161.68 -6.62l-41.35 0c-6.35,0 -11.34,2.17 -14.93,6.47 -3.19,3.9 -4.78,8.68 -4.78,14.44l0 134.46c0,2.17 0.64,3.9 1.88,5.19 1.27,1.14 2.8,1.73 4.61,1.73 1.67,0 3.15,-0.58 4.4,-1.73 1.39,-1.28 2.1,-3.01 2.1,-5.19l0 -66.29 48.13 0c13.4,0 24.08,-4.66 31.96,-14 7.2,-8.35 10.78,-18.49 10.78,-30.43 0,-12.24 -3.58,-22.49 -10.78,-30.84 -7.91,-9.23 -18.59,-13.81 -31.99,-13.81l-0.01 0zm169.9 0l-75.78 0c-6.35,0 -11.34,2.17 -14.94,6.47 -3.19,3.86 -4.78,8.68 -4.78,14.44l0 116.94c0,5.63 1.59,10.37 4.78,14.22 3.58,4.29 8.58,6.47 14.96,6.47l78.52 0c2.06,0 3.73,-0.66 4.97,-1.95 1.11,-1.18 1.67,-2.54 1.67,-4.12 0,-1.73 -0.56,-3.16 -1.67,-4.33 -1.24,-1.15 -2.91,-1.73 -4.97,-1.73l-76.18 0c-3.02,0 -5.39,-0.99 -7.02,-3.01 -1.39,-1.69 -2.1,-3.86 -2.1,-6.43l0 -54.28 75.29 0c2.06,0 3.73,-0.66 4.97,-1.95 1.11,-1.18 1.67,-2.54 1.67,-4.12 0,-1.73 -0.56,-3.16 -1.67,-4.33 -1.24,-1.14 -2.91,-1.73 -4.97,-1.73l-75.29 0 0 -48.73c0,-2.72 0.71,-4.96 2.1,-6.68 1.63,-2.02 4.01,-3.01 7.02,-3.01l73.41 0c1.92,0 3.51,-0.66 4.76,-1.95 1.11,-1.18 1.67,-2.54 1.67,-4.12 0,-1.73 -0.57,-3.16 -1.67,-4.33 -1.24,-1.14 -2.83,-1.73 -4.76,-1.73l0 -0.02zm22.87 5.51l39.9 149.23c1.28,4.89 3.9,7.38 7.91,7.54 4.01,0 6.84,-2.5 8.51,-7.54l33.87 -134.57 34.08 134.35c1.24,5.19 3.9,7.75 7.91,7.75 4.15,0 6.84,-2.57 8.08,-7.75l39.9 -149.01c0.43,-2.28 0.15,-4.3 -0.82,-6.03 -0.96,-1.43 -2.34,-2.35 -4.15,-2.79 -1.81,-0.45 -3.41,-0.22 -4.78,0.66 -1.81,0.99 -2.91,2.64 -3.34,4.93l-35.33 130.28 -32.2 -128.98c-1.24,-4.74 -4.44,-7.09 -9.54,-7.09 -5,0 -8.12,2.35 -9.37,7.09l-32.2 128.98 -35.74 -130.9c-0.56,-2.02 -1.59,-3.46 -3.13,-4.3 -1.52,-0.89 -3.13,-1.11 -4.78,-0.66 -1.8,0.29 -3.19,1.14 -4.15,2.57 -0.96,1.73 -1.17,3.82 -0.64,6.25l0 -0.01zm266.86 -9.05c-22.84,0 -40.5,8.45 -52.95,25.4 -10.82,15.11 -16.21,34.24 -16.21,57.51 0,23.27 5.4,42.34 16.21,57.29 12.45,17.09 30.1,25.61 52.95,25.61 22.69,0 40.28,-8.52 52.76,-25.61 11.06,-14.96 16.59,-34.03 16.59,-57.29 0,-23.26 -5.53,-42.4 -16.59,-57.51 -12.48,-16.94 -30.08,-25.4 -52.76,-25.4l0 0zm163.74 0c-22.84,0 -40.51,8.45 -52.95,25.4 -10.82,15.11 -16.21,34.24 -16.21,57.51 0,23.27 5.4,42.34 16.21,57.29 12.44,17.09 30.1,25.61 52.95,25.61 22.69,0 40.28,-8.52 52.76,-25.61 11.06,-14.96 16.6,-34.03 16.6,-57.29 0,-23.26 -5.53,-42.4 -16.6,-57.51 -12.48,-16.94 -30.07,-25.4 -52.76,-25.4l0 0zm121.53 3.53c-6.35,0 -11.34,2.17 -14.94,6.47 -3.19,3.86 -4.78,8.68 -4.78,14.44l0 116.94c0,5.63 1.59,10.37 4.78,14.22 3.58,4.29 8.58,6.47 14.94,6.47l29.72 0c22.7,0 40.5,-7.9 53.38,-23.7 12.02,-14.48 18.05,-33.04 18.05,-55.56 0,-22.57 -6.03,-41.08 -18.05,-55.56 -12.88,-15.81 -30.68,-23.7 -53.38,-23.7l-29.72 0 0 -0.01z"/>
 </g>
</svg>
